<mxfile host="65bd71144e" pages="1">
    <diagram id="B23RgaJtkEoS0NlH7V0d" name="Page-1">
        <mxGraphModel dx="657" dy="275" grid="1" gridSize="10" guides="1" tooltips="1" connect="1" arrows="1" fold="1" page="1" pageScale="1" pageWidth="827" pageHeight="1169" math="0" shadow="0">
            <root>
                <mxCell id="0"/>
                <mxCell id="1" parent="0"/>
                <mxCell id="2" value="URL Structure" style="swimlane;html=1;startSize=20;horizontal=0;childLayout=treeLayout;horizontalTree=1;resizable=0;containerType=tree;" parent="1" vertex="1">
                    <mxGeometry x="40" y="40" width="460" height="160" as="geometry">
                        <mxRectangle x="20" y="20" width="30" height="100" as="alternateBounds"/>
                    </mxGeometry>
                </mxCell>
                <mxCell id="3" value="/&lt;br&gt;메인" style="whiteSpace=wrap;html=1;align=center;" parent="2" vertex="1">
                    <mxGeometry x="40" y="60" width="100" height="40" as="geometry"/>
                </mxCell>
                <mxCell id="9" value="/mypage/profile&lt;br&gt;프로필 편집" style="whiteSpace=wrap;html=1;" parent="2" vertex="1">
                    <mxGeometry x="340" y="100" width="100" height="40" as="geometry"/>
                </mxCell>
                <mxCell id="10" value="" style="edgeStyle=elbowEdgeStyle;elbow=horizontal;html=1;rounded=0;" parent="2" source="3" target="11" edge="1">
                    <mxGeometry relative="1" as="geometry">
                        <mxPoint x="160" y="-492" as="sourcePoint"/>
                    </mxGeometry>
                </mxCell>
                <mxCell id="11" value="/room&lt;br&gt;방 만들기" style="whiteSpace=wrap;html=1;" parent="2" vertex="1">
                    <mxGeometry x="190" y="20" width="100" height="40" as="geometry"/>
                </mxCell>
                <mxCell id="46" value="" style="edgeStyle=orthogonalEdgeStyle;rounded=0;orthogonalLoop=1;jettySize=auto;html=1;endArrow=classic;dashed=1;startArrow=classic;startFill=1;endFill=1;" parent="2" source="11" target="43" edge="1">
                    <mxGeometry relative="1" as="geometry">
                        <mxPoint x="330" y="176" as="sourcePoint"/>
                        <mxPoint x="430" y="124" as="targetPoint"/>
                    </mxGeometry>
                </mxCell>
                <mxCell id="43" value="/room/:room_id&lt;br&gt;플래닝 포커 방" style="whiteSpace=wrap;html=1;" parent="2" vertex="1">
                    <mxGeometry x="340" y="20" width="100" height="40" as="geometry"/>
                </mxCell>
                <mxCell id="6" value="/mypage&lt;br&gt;마이페이지" style="whiteSpace=wrap;html=1;" parent="2" vertex="1">
                    <mxGeometry x="190" y="100" width="100" height="40" as="geometry"/>
                </mxCell>
                <mxCell id="7" value="" style="edgeStyle=elbowEdgeStyle;elbow=horizontal;html=1;rounded=0;" parent="2" source="3" target="6" edge="1">
                    <mxGeometry relative="1" as="geometry"/>
                </mxCell>
                <mxCell id="8" value="" style="edgeStyle=elbowEdgeStyle;elbow=horizontal;html=1;rounded=0;dashed=1;startArrow=classic;startFill=1;" parent="2" source="6" target="9" edge="1">
                    <mxGeometry relative="1" as="geometry">
                        <mxPoint x="160" y="-492" as="sourcePoint"/>
                    </mxGeometry>
                </mxCell>
                <mxCell id="111" style="html=1;dashed=1;fontSize=10;startArrow=classic;startFill=1;" parent="2" edge="1">
                    <mxGeometry relative="1" as="geometry">
                        <mxPoint x="240" y="100" as="sourcePoint"/>
                        <mxPoint x="240" y="60" as="targetPoint"/>
                    </mxGeometry>
                </mxCell>
                <mxCell id="112" style="edgeStyle=none;html=1;entryX=0.5;entryY=1;entryDx=0;entryDy=0;dashed=1;" edge="1" parent="1" source="20" target="6">
                    <mxGeometry relative="1" as="geometry"/>
                </mxCell>
                <mxCell id="20" value="/login&lt;br&gt;로그인" style="whiteSpace=wrap;html=1;align=center;" parent="1" vertex="1">
                    <mxGeometry x="230" y="230" width="100" height="40" as="geometry"/>
                </mxCell>
                <mxCell id="19" value="" style="edgeStyle=none;html=1;" parent="1" source="3" target="20" edge="1">
                    <mxGeometry relative="1" as="geometry">
                        <Array as="points">
                            <mxPoint x="130" y="250"/>
                        </Array>
                    </mxGeometry>
                </mxCell>
            </root>
        </mxGraphModel>
    </diagram>
</mxfile>